# xmcd
#
# Track frame offsets:
#	150
#	14400
#	28875
#	44025
#	60225
#	75375
#	98550
#	111900
#	128625
#	143175
#	158175
#	178050
#	193125
#
# Disc length: 2753 seconds
#
# Revision: 1
# Processed by: cddbd v1.5.2PL0 Copyright (c) Steve Scherf et al.
# Submitted via: EZCDAudioConverter 8.5.0.1
#
DISCID=ac0abf0d
DTITLE=The Bellamy Brothers - Greatest Hits Volume 1: Deluxe Edition
DYEAR=2011
DGENRE=Country
TTITLE0=Let Your Love Flow
TTITLE1=If I Said You Have a Beautiful Body (Would You Hold It Against Me)
TTITLE2=Redneck Girl
TTITLE3=Sugar Daddy
TTITLE4=Dancin' Cowboys
TTITLE5=You Ain't Just Whistlin Dixie (Live)
TTITLE6=Do You Love As Good As You Look
TTITLE7=For All the Wrong Reasons
TTITLE8=Get Into Reggae Cowboy
TTITLE9=Lovers Live Longer
TTITLE10=After the Storm
TTITLE11=Mexico Came Here
TTITLE12=Blue California
EXTD=
EXTT0=
EXTT1=
EXTT2=
EXTT3=
EXTT4=
EXTT5=
EXTT6=
EXTT7=
EXTT8=
EXTT9=
EXTT10=
EXTT11=
EXTT12=
PLAYORDER=
